<svg xmlns="http://www.w3.org/2000/svg" width="121" height="96" viewBox="0 0 121 96">
    <g fill="none" fill-rule="evenodd">
        <path fill="#74F5B0" d="M102.153 18.382a3.796 3.796 0 0 1-1.095-2.67V3.443C101.058 1.54 99.533 0 97.65 0H86.58c-1.882 0-3.408 1.54-3.408 3.442v11.18c0 1.9 1.526 3.44 3.407 3.44h12.146a3.72 3.72 0 0 1 2.644 1.108l.002.003a3.789 3.789 0 0 1 1.095 2.669v70.717c0 1.9 1.527 3.44 3.408 3.44h11.07c1.883 0 3.409-1.54 3.409-3.44V22.93c0-1.9-1.526-3.44-3.408-3.44h-12.148a3.72 3.72 0 0 1-2.644-1.107M18.975 58.153l.014-.014c.7-.705 1.648-1.1 2.637-1.1h30.047c1.874 0 3.393-1.533 3.393-3.424V41.309c0-.992.391-1.944 1.09-2.645l.011-.013a3.728 3.728 0 0 1 2.64-1.1h12.16c1.874 0 3.393-1.533 3.393-3.425V22.914c0-1.892-1.519-3.426-3.392-3.426H58.804a3.72 3.72 0 0 1-2.643-1.106 3.795 3.795 0 0 1-1.095-2.67V3.426C55.066 1.534 53.547 0 51.673 0H3.45C1.544 0 0 1.56 0 3.483v11.098c0 1.923 1.544 3.483 3.449 3.483h49.282c.993 0 1.945.397 2.647 1.107a3.8 3.8 0 0 1 1.096 2.673v13.363c0 .999-.394 1.956-1.094 2.66l-.01.01c-.7.705-1.648 1.1-2.637 1.1H22.686c-1.873 0-3.392 1.534-3.392 3.425v12.294a3.77 3.77 0 0 1-1.09 2.655l-.011.013a3.7 3.7 0 0 1-2.628 1.099H3.392C1.52 58.463 0 59.996 0 61.89V73.1c0 1.893 1.519 3.426 3.392 3.426h12.185c.985 0 1.931.396 2.628 1.1h.001a3.77 3.77 0 0 1 1.088 2.655v12.292c0 1.893 1.52 3.426 3.392 3.426H70.91c1.905 0 3.45-1.559 3.45-3.482V81.42c0-1.925-1.545-3.483-3.45-3.483l-49.285-.001a3.723 3.723 0 0 1-2.638-1.099l-.013-.014a3.75 3.75 0 0 1-1.089-2.643V60.798a3.75 3.75 0 0 1 1.089-2.645"/>
        <path fill="#000" d="M113.222 55.285l.019.018c.067.068.105.16.105.258v5.507c0 .096-.038.19-.105.257l-.019.018a.359.359 0 0 1-.254.107h-3.286a.362.362 0 0 1-.255-.107l-.018-.018a.368.368 0 0 1-.105-.258V55.56c0-.097.038-.19.105-.258l.02-.018a.354.354 0 0 1 .255-.107h3.282c.097 0 .189.038.256.107m-.023-.34V53.65c0-.2-.162-.364-.362-.364h-3.025a.362.362 0 0 0-.36.364v1.295a.367.367 0 0 1-.107.258l-.017.016a.355.355 0 0 1-.256.108h-1.28a.364.364 0 0 0-.361.365v5.244c0 .202.161.366.36.366h1.281c.096 0 .188.038.256.106l.017.018c.069.069.106.162.106.259v1.293c0 .2.162.365.36.365h3.026c.2 0 .362-.165.362-.366v-1.292c0-.097.037-.19.106-.26l.017-.016a.36.36 0 0 1 .255-.106h1.28c.2 0 .362-.165.362-.365v-5.246a.364.364 0 0 0-.361-.365h-1.281a.357.357 0 0 1-.255-.108l-.017-.016a.367.367 0 0 1-.106-.258M114.46 37.329l-.02.019a.376.376 0 0 1-.266.111H112.7c-.1 0-.196-.04-.267-.111l-.019-.02a.382.382 0 0 1-.11-.269v-7.283a.38.38 0 0 0-.378-.38h-1.203a.38.38 0 0 0-.377.38v7.283c0 .102-.039.198-.11.27l-.018.019a.376.376 0 0 1-.268.111h-1.473c-.101 0-.196-.04-.267-.111l-.019-.02a.382.382 0 0 1-.11-.269v-7.283a.38.38 0 0 0-.378-.38H106.5a.38.38 0 0 0-.377.38v7.146c0 .211.17.381.377.381h1.338c.1 0 .196.04.267.112l.019.019c.07.071.11.168.11.27v1.351c0 .21.17.382.378.382h1.203a.38.38 0 0 0 .377-.382v-1.352c0-.1.04-.198.11-.269l.02-.02a.375.375 0 0 1 .266-.11h1.474c.1 0 .195.04.266.11l.02.02a.38.38 0 0 1 .11.27v1.351c0 .21.168.382.377.382h1.204c.208 0 .376-.171.376-.382v-1.352c0-.1.04-.198.11-.269l.02-.02a.372.372 0 0 1 .266-.11h1.34c.207 0 .377-.17.377-.382v-7.146a.38.38 0 0 0-.377-.38h-1.205a.378.378 0 0 0-.376.38v7.283a.388.388 0 0 1-.11.27M113.157 45.159l-.036.036a.35.35 0 0 1-.247.104h-3.133a.353.353 0 0 1-.35-.354V41.69a.35.35 0 0 0-.35-.354h-1.26a.35.35 0 0 0-.35.354v9.35c0 .193.155.353.35.353h1.26c.193 0 .35-.16.35-.354v-3.408c0-.196.156-.354.35-.354h3.135c.092 0 .18.038.246.104l.035.035a.354.354 0 0 1 .103.248v3.375c0 .194.156.353.35.353h1.26c.194 0 .35-.159.35-.353v-3.254a.35.35 0 0 0-.35-.353h-1.38a.353.353 0 0 1-.248-.104l-.034-.035a.353.353 0 0 1-.103-.25V45.53c0-.094.036-.184.103-.25l.035-.035a.343.343 0 0 1 .246-.104h1.38c.195 0 .35-.159.35-.354v-3.097a.35.35 0 0 0-.35-.354h-1.26a.35.35 0 0 0-.35.354v3.218a.36.36 0 0 1-.102.25M113.14 66.948v-1.325c0-.21-.168-.38-.376-.38h-2.877a.378.378 0 0 0-.377.38v1.325c0 .1-.04.197-.11.268l-.014.014a.38.38 0 0 1-.265.112h-1.314a.377.377 0 0 0-.376.379v7.182c0 .21.167.38.376.38h1.175c.208 0 .376-.17.376-.38v-7.318c0-.1.04-.196.111-.268l.016-.017c.07-.07.165-.11.266-.11h3.149c.1 0 .195.04.265.11l.017.017a.38.38 0 0 1 .11.268v7.318c0 .21.169.38.377.38h1.175c.207 0 .375-.17.375-.38v-7.182a.377.377 0 0 0-.375-.379h-1.315a.377.377 0 0 1-.265-.112l-.013-.014a.38.38 0 0 1-.111-.268M113.27 83.342a.362.362 0 0 1-.106-.256V81.8a.397.397 0 0 0-.396-.4h-3.049a.352.352 0 0 1-.253-.107l-.025-.023a.366.366 0 0 1-.105-.257V79.56c0-.096.038-.189.105-.256l.024-.024a.36.36 0 0 1 .254-.105h3.212c.095 0 .187.038.254.105l.024.024a.36.36 0 0 1 .105.256v3.827l-.044-.045zm1.591-4.019h-1.317a.362.362 0 0 1-.254-.105l-.02-.022a.357.357 0 0 1-.107-.256v-1.328a.36.36 0 0 0-.358-.363h-2.96a.36.36 0 0 0-.358.363v1.328c0 .096-.039.189-.106.256l-.022.022a.357.357 0 0 1-.253.105h-1.317a.361.361 0 0 0-.358.363v7.126c0 .2.16.364.358.364h1.188c.199 0 .36-.163.36-.364V81.332l.044.045c.067.068.106.161.106.257v1.329c0 .2.16.362.358.362l3.088-.005c.095 0 .186.04.252.106l.025.026a.36.36 0 0 1 .104.252v3.108c0 .2.16.364.358.364h1.188a.361.361 0 0 0 .36-.364V79.686a.36.36 0 0 0-.359-.363z"/>
    </g>
</svg>
