<?xml version="1.0" standalone="no"?>
<!DOCTYPE svg PUBLIC "-//W3C//DTD SVG 20010904//EN"
 "http://www.w3.org/TR/2001/REC-SVG-20010904/DTD/svg10.dtd">
<svg version="1.0" xmlns="http://www.w3.org/2000/svg"
 width="512.000000pt" height="512.000000pt" viewBox="0 0 512.000000 512.000000"
 preserveAspectRatio="xMidYMid meet">

<g transform="translate(0.000000,512.000000) scale(0.100000,-0.100000)"
fill="#000000" stroke="none">
<path d="M849 4561 l-29 -29 0 -424 c0 -233 3 -433 6 -445 4 -13 211 -202 480
-438 299 -263 472 -421 467 -428 -8 -14 -371 -426 -414 -472 l-29 -29 -123
122 c-144 142 -186 166 -287 165 -76 0 -124 -19 -181 -70 -64 -58 -83 -104
-84 -198 0 -59 5 -90 19 -120 11 -22 82 -103 158 -180 l137 -140 -364 -365
-365 -366 0 -229 0 -229 78 -78 78 -78 218 0 c169 0 223 3 244 14 15 8 184
172 377 365 l350 351 135 -134 c162 -160 196 -180 300 -181 60 0 84 5 123 25
96 49 147 133 147 245 0 104 -21 139 -165 285 l-123 125 274 243 c150 133 278
242 284 242 6 0 134 -109 284 -242 l274 -243 -123 -125 c-144 -146 -165 -181
-165 -285 0 -112 51 -196 147 -245 39 -20 63 -25 123 -25 104 1 138 21 300
181 l135 134 350 -351 c193 -193 362 -357 377 -365 21 -11 75 -14 244 -14
l218 0 78 78 78 78 0 229 0 229 -365 366 -364 365 137 140 c76 77 147 158 158
180 14 30 19 61 19 120 -1 94 -20 140 -84 198 -57 51 -105 70 -181 70 -101 1
-144 -24 -285 -163 -66 -66 -124 -120 -127 -120 -6 0 -428 475 -441 497 -5 7
169 166 467 428 269 236 476 425 480 438 3 12 6 212 6 445 l0 424 -29 29 -29
29 -437 0 -436 0 -44 -42 c-24 -24 -204 -225 -400 -448 -196 -223 -361 -405
-365 -405 -5 0 -171 185 -370 410 -198 226 -378 427 -400 448 l-39 37 -436 0
-437 0 -29 -29z m1213 -554 c206 -232 377 -427 381 -434 8 -12 -537 -638 -555
-638 -5 0 -212 177 -459 394 l-449 395 0 353 0 353 355 0 354 0 373 -423z
m2078 70 l0 -353 -147 -130 c-82 -71 -330 -289 -552 -484 l-403 -354 -180 44
c-167 41 -181 43 -206 29 -15 -8 -33 -27 -40 -42 -12 -25 -8 -38 47 -169 l61
-143 -23 -21 c-49 -46 -800 -709 -806 -712 -3 -1 -42 34 -86 78 l-79 80 161
162 c96 97 164 174 168 190 12 48 -28 97 -79 98 -25 0 -56 -26 -198 -167
l-168 -168 -82 82 c-76 76 -81 83 -66 100 8 10 455 516 992 1126 l976 1107
355 0 355 0 0 -353z m-681 -1652 c116 -131 211 -242 211 -245 0 -3 -36 -41
-80 -85 l-80 -79 -168 167 c-142 141 -173 167 -198 167 -51 -1 -91 -50 -79
-98 4 -16 72 -93 168 -190 l162 -162 -82 -82 -81 -81 -258 229 c-142 126 -267
236 -277 244 -17 14 -12 21 86 107 63 55 107 103 111 118 5 18 -5 51 -30 111
-20 46 -34 87 -32 90 3 3 51 -7 106 -21 55 -14 112 -25 126 -25 16 0 48 20 88
54 59 51 64 53 80 38 9 -10 111 -125 227 -257z m-2496 -9 c18 -8 274 -257 600
-583 l567 -568 0 -48 c0 -37 -6 -53 -29 -79 -26 -29 -35 -33 -80 -33 l-51 0
-580 580 c-562 562 -580 582 -580 618 0 51 22 91 62 110 41 20 50 21 91 3z
m3283 -2 c41 -20 64 -59 64 -111 0 -36 -18 -56 -580 -618 l-580 -580 -51 0
c-45 0 -54 4 -80 33 -23 26 -29 42 -29 79 l0 48 568 568 c312 313 581 575 597
583 39 17 50 17 91 -2z m-2873 -1136 l-98 -98 -192 192 -193 193 97 97 98 98
192 -192 193 -193 -97 -97z m2665 95 l-193 -193 -97 97 -98 98 192 192 193
193 97 -97 98 -98 -192 -192z m-2958 -388 l-80 -80 -192 192 -193 193 80 80
80 80 192 -192 193 -193 -80 -80z m3233 113 l-193 -193 -80 80 -80 80 192 192
193 193 80 -80 80 -80 -192 -192z m-3616 -110 c101 -101 183 -187 183 -193 0
-5 -21 -31 -47 -57 l-47 -48 -160 0 -160 0 -33 32 -33 32 0 160 0 160 47 48
c26 26 52 48 58 48 5 0 92 -82 192 -182z m3975 135 l48 -47 0 -160 0 -160 -32
-33 -32 -33 -160 0 -160 0 -48 47 c-26 26 -48 52 -48 58 0 13 361 375 375 375
5 0 31 -21 57 -47z"/>
</g>
</svg>
