<?xml version="1.0" standalone="no"?>
<!DOCTYPE svg PUBLIC "-//W3C//DTD SVG 20010904//EN"
 "http://www.w3.org/TR/2001/REC-SVG-20010904/DTD/svg10.dtd">
<svg version="1.0" xmlns="http://www.w3.org/2000/svg"
 width="512.000000pt" height="512.000000pt" viewBox="0 0 512.000000 512.000000"
 preserveAspectRatio="xMidYMid meet">

<g transform="translate(0.000000,512.000000) scale(0.100000,-0.100000)"
fill="#000000" stroke="none">
<path d="M2315 5109 c-884 -91 -1661 -631 -2049 -1423 -93 -188 -137 -308
-186 -500 -61 -240 -74 -355 -74 -626 0 -271 13 -386 74 -626 49 -192 93 -312
186 -500 247 -505 663 -921 1168 -1169 183 -89 325 -142 511 -188 232 -58 349
-71 615 -71 271 0 386 13 626 74 192 49 312 93 500 185 505 248 921 664 1168
1169 90 183 143 325 189 511 58 232 71 349 71 615 0 266 -13 383 -71 615 -133
535 -445 1023 -877 1374 -196 160 -492 328 -730 416 -130 48 -371 109 -516
130 -135 20 -474 28 -605 14z m640 -128 c539 -92 986 -328 1365 -717 362 -373
578 -806 667 -1339 26 -157 26 -573 0 -730 -76 -454 -244 -833 -522 -1180 -96
-119 -306 -322 -425 -411 -335 -250 -688 -399 -1115 -471 -157 -26 -573 -26
-730 0 -454 76 -835 245 -1180 523 -104 84 -297 278 -377 379 -266 338 -432
720 -505 1160 -26 157 -26 573 0 730 92 556 328 1012 723 1396 404 393 876
611 1474 683 19 2 141 3 270 1 181 -2 262 -8 355 -24z"/>
<path d="M2457 4096 c-20 -8 -44 -19 -52 -26 -80 -66 -70 -202 18 -255 27 -16
27 -16 27 -131 l0 -114 -188 0 c-137 0 -202 -4 -238 -15 -70 -20 -155 -85
-197 -148 -54 -82 -70 -148 -66 -286 4 -107 6 -122 36 -182 40 -80 111 -150
191 -187 50 -23 72 -27 180 -30 l122 -4 0 -104 0 -104 -248 0 c-237 0 -250 -1
-292 -22 -25 -13 -54 -37 -65 -54 l-20 -32 -155 -3 c-146 -4 -158 -6 -212 -32
-65 -32 -121 -90 -152 -156 -16 -35 -21 -65 -21 -131 0 -96 19 -150 74 -212
l31 -36 0 -274 0 -274 -31 -30 c-43 -40 -70 -97 -76 -159 -5 -47 -3 -54 18
-69 13 -9 29 -16 36 -16 24 0 53 39 53 73 0 39 40 101 78 121 53 27 94 29 142
4 52 -27 88 -75 97 -130 4 -26 14 -45 29 -55 22 -14 26 -14 49 1 19 13 25 25
25 54 0 57 -26 124 -65 167 l-35 38 0 238 0 239 49 0 50 0 3 -207 c3 -234 8
-252 75 -298 l38 -25 741 0 741 0 33 22 c73 50 75 56 78 294 l3 214 55 0 54 0
0 -238 0 -238 -31 -30 c-43 -40 -70 -97 -76 -159 -5 -47 -3 -54 18 -69 13 -9
29 -16 36 -16 24 0 53 39 53 73 0 39 40 101 78 121 53 27 94 29 142 4 52 -27
88 -75 97 -130 4 -26 14 -45 29 -55 22 -14 26 -14 49 1 19 13 25 25 25 54 0
57 -26 124 -65 167 l-35 38 0 279 0 280 35 41 c62 72 84 209 49 311 -22 64
-100 147 -166 177 -47 21 -72 24 -205 27 l-153 4 -17 30 c-10 16 -34 39 -53
51 -33 21 -48 22 -297 25 l-263 3 0 104 0 103 123 4 c112 3 127 6 189 35 81
38 146 102 185 181 27 55 28 63 28 207 0 142 -2 153 -27 207 -37 79 -98 142
-177 181 l-65 32 -208 3 -208 3 0 115 c0 63 4 114 9 114 5 0 25 15 44 33 85
80 62 209 -47 258 -48 22 -59 22 -109 5z m87 -112 c40 -40 -7 -109 -59 -86
-32 15 -41 47 -21 77 19 29 57 33 80 9z m448 -542 c26 -13 63 -41 83 -64 60
-66 70 -97 70 -233 0 -111 -2 -124 -27 -171 -30 -57 -73 -98 -133 -125 -37
-17 -75 -19 -471 -19 -490 0 -493 0 -568 76 -61 60 -76 111 -76 248 0 121 12
162 65 224 29 34 89 70 140 83 17 4 219 7 450 6 417 -2 420 -2 467 -25z m-382
-827 l0 -105 -105 0 -105 0 0 105 0 105 105 0 105 0 0 -105z m621 -225 c18
-10 19 -27 19 -520 l0 -509 -22 -15 c-20 -14 -105 -16 -723 -16 -618 0 -703 2
-723 16 l-22 15 0 504 c0 444 2 505 16 519 14 14 93 16 725 16 471 0 717 -3
730 -10z m-1581 -310 l0 -210 -131 0 c-123 0 -134 2 -180 26 -67 37 -102 90
-107 164 -5 74 9 118 55 165 55 57 81 64 231 65 l132 0 0 -210z m2042 175
c124 -88 124 -262 0 -350 -43 -30 -46 -30 -188 -33 l-144 -3 0 211 0 211 144
-3 c142 -3 145 -3 188 -33z m-12 -700 l0 -225 -55 0 -55 0 0 213 0 213 53 11
c28 5 53 11 55 11 1 1 2 -99 2 -223z m-2257 205 c16 0 17 -17 17 -215 l0 -215
-55 0 -55 0 0 221 0 222 38 -7 c20 -3 45 -6 55 -6z"/>
<path d="M2091 3334 c-132 -66 -157 -229 -51 -334 105 -106 268 -81 334 51 43
88 30 176 -39 244 -68 69 -156 82 -244 39z m170 -113 c38 -38 41 -106 6 -146
-28 -34 -91 -44 -134 -22 -60 31 -70 129 -18 175 40 34 108 31 146 -7z"/>
<path d="M2731 3334 c-132 -66 -157 -229 -51 -334 105 -106 268 -81 334 51 43
88 30 176 -39 244 -68 69 -156 82 -244 39z m170 -113 c38 -38 41 -106 6 -146
-28 -34 -91 -44 -134 -22 -60 31 -70 129 -18 175 40 34 108 31 146 -7z"/>
<path d="M1943 2175 c-23 -16 -23 -19 -23 -255 l0 -240 25 -16 c20 -13 42 -16
105 -12 94 5 139 30 170 94 25 51 25 89 1 137 -18 36 -18 38 0 74 24 48 24 86
-2 139 -30 64 -75 87 -173 92 -64 3 -86 0 -103 -13z m168 -105 c27 -15 25 -64
-3 -84 -12 -9 -35 -16 -50 -16 -27 0 -28 2 -28 55 0 55 0 55 31 55 17 0 39 -5
50 -10z m-3 -216 c28 -20 30 -69 3 -84 -11 -5 -33 -10 -50 -10 -31 0 -31 0
-31 55 0 53 1 55 28 55 15 0 38 -7 50 -16z"/>
<path d="M2455 2175 c-22 -8 -41 -15 -42 -15 -2 0 -16 -19 -33 -42 l-30 -41 0
-156 c0 -151 1 -158 25 -194 43 -63 118 -89 181 -62 92 38 114 86 114 255 0
168 -22 217 -113 255 -44 18 -51 18 -102 0z m89 -111 c13 -12 16 -40 16 -141
0 -137 -9 -163 -56 -163 -43 0 -54 34 -54 160 0 88 4 121 16 138 18 26 56 29
78 6z"/>
<path d="M2790 2170 c-24 -24 -25 -38 -4 -68 11 -16 25 -22 55 -22 l39 0 0
-199 c0 -195 1 -200 22 -215 30 -21 44 -20 68 4 19 19 20 33 20 215 l0 195 31
0 c46 0 69 16 69 50 0 50 -28 60 -162 60 -105 0 -120 -2 -138 -20z"/>
</g>
</svg>
