<?xml version="1.0" standalone="no"?>
<!DOCTYPE svg PUBLIC "-//W3C//DTD SVG 20010904//EN"
 "http://www.w3.org/TR/2001/REC-SVG-20010904/DTD/svg10.dtd">
<svg version="1.0" xmlns="http://www.w3.org/2000/svg"
 width="512.000000pt" height="512.000000pt" viewBox="0 0 512.000000 512.000000"
 preserveAspectRatio="xMidYMid meet">

<g transform="translate(0.000000,512.000000) scale(0.100000,-0.100000)"
fill="#000000" stroke="none">
<path d="M2425 4884 c-342 -26 -627 -104 -920 -252 -438 -222 -795 -579 -1017
-1017 -126 -248 -202 -495 -239 -775 -16 -122 -16 -438 0 -560 104 -782 568
-1444 1260 -1794 338 -171 664 -249 1046 -249 280 -1 485 32 749 120 840 280
1447 1024 1567 1923 18 137 15 460 -5 595 -41 265 -112 492 -222 714 -346 697
-1001 1169 -1769 1276 -104 15 -364 25 -450 19z m413 -390 c861 -127 1529
-795 1656 -1656 21 -137 21 -419 1 -553 -72 -478 -313 -915 -673 -1215 -288
-241 -619 -390 -987 -445 -134 -20 -416 -20 -553 1 -861 127 -1529 795 -1656
1656 -10 64 -16 173 -16 278 0 105 6 214 16 278 81 551 391 1041 848 1346 240
159 515 266 801 310 127 20 431 20 563 0z"/>
<path d="M2365 4088 c-33 -18 -35 -28 -35 -150 l0 -118 230 0 230 0 0 118 c0
64 -4 122 -8 128 -19 28 -56 34 -224 34 -110 0 -180 -5 -193 -12z"/>
<path d="M1582 3583 l3 -138 975 0 975 0 3 138 3 137 -981 0 -981 0 3 -137z"/>
<path d="M1680 3313 c0 -21 20 -326 45 -678 25 -352 56 -818 70 -1035 14 -217
30 -412 36 -433 12 -44 59 -101 103 -125 28 -15 85 -17 626 -17 541 0 598 2
626 17 44 24 91 81 103 125 6 21 22 216 36 433 14 217 45 685 70 1039 25 355
45 660 45 678 l0 33 -880 0 -880 0 0 -37z m477 -176 c13 -11 25 -34 28 -51 3
-17 26 -440 51 -940 51 -1000 51 -946 -14 -973 -39 -16 -73 -9 -103 23 -23 24
-23 32 -70 942 -27 504 -48 927 -49 939 0 12 11 35 25 52 38 44 89 47 132 8z
m938 -9 c14 -16 25 -37 25 -46 -1 -9 -22 -432 -49 -939 -47 -916 -47 -923 -70
-947 -30 -32 -64 -39 -103 -23 -65 27 -65 -27 -14 973 25 500 48 923 51 940
13 79 108 104 160 42z m-470 7 l25 -24 0 -943 c0 -1034 4 -972 -60 -998 -24
-10 -36 -10 -60 0 -64 26 -60 -36 -60 998 l0 943 25 24 c34 35 96 35 130 0z"/>
</g>
</svg>
