<?xml version="1.0" standalone="no"?>
<!DOCTYPE svg PUBLIC "-//W3C//DTD SVG 20010904//EN"
 "http://www.w3.org/TR/2001/REC-SVG-20010904/DTD/svg10.dtd">
<svg version="1.0" xmlns="http://www.w3.org/2000/svg"
 width="260.000000pt" height="260.000000pt" viewBox="0 0 260.000000 260.000000"
 preserveAspectRatio="xMidYMid meet">

<g transform="translate(0.000000,260.000000) scale(0.100000,-0.100000)"
fill="#000000" stroke="none">
<path d="M1031 2585 c-151 -33 -309 -100 -448 -190 -119 -77 -309 -270 -382
-388 -274 -444 -267 -985 20 -1422 68 -103 251 -286 354 -354 145 -95 303
-161 478 -198 116 -25 380 -25 497 1 254 55 468 167 646 338 196 189 323 418
381 688 25 119 25 382 0 500 -59 274 -179 492 -377 684 -183 177 -406 296
-640 340 -106 21 -436 21 -529 1z m707 -838 c238 -238 432 -438 432 -443 0 -5
-32 -41 -70 -79 l-70 -70 -365 365 -365 365 -365 -365 -365 -365 -70 70 c-38
38 -70 73 -70 77 0 10 860 878 869 878 4 0 201 -195 439 -433z m142 166 l0
-208 -34 35 c-19 19 -77 82 -130 139 l-96 103 0 69 0 69 130 0 130 0 0 -207z
m-212 -495 l312 -310 0 -329 0 -329 -222 2 -223 3 -3 288 -2 287 -225 0 -225
0 -2 -287 -3 -288 -227 -3 -228 -2 0 332 0 333 337 331 338 331 30 -24 c17
-14 171 -165 343 -335z"/>
</g>
</svg>
