<?xml version="1.0" standalone="no"?>
<!DOCTYPE svg PUBLIC "-//W3C//DTD SVG 20010904//EN"
 "http://www.w3.org/TR/2001/REC-SVG-20010904/DTD/svg10.dtd">
<svg version="1.0" xmlns="http://www.w3.org/2000/svg"
 width="840.000000pt" height="848.000000pt" viewBox="0 0 840.000000 848.000000"
 preserveAspectRatio="xMidYMid meet">

<g transform="translate(0.000000,848.000000) scale(0.100000,-0.100000)"
fill="#000000" stroke="none">
<path d="M4659 8055 c-145 -27 -299 -87 -299 -115 0 -19 60 -40 187 -65 278
-55 485 -123 670 -219 373 -195 588 -489 570 -781 -6 -96 -30 -164 -92 -256
-84 -125 -98 -223 -47 -321 l29 -54 -291 -301 c-160 -166 -507 -524 -771 -797
-263 -273 -482 -495 -486 -494 -3 2 -189 175 -412 386 l-405 384 23 69 c121
353 107 775 -36 1134 -161 403 -491 741 -889 909 -228 97 -392 130 -650 130
-209 1 -230 -5 -269 -74 -23 -42 -26 -75 -11 -117 6 -15 198 -216 428 -445
l416 -417 -99 -397 c-55 -218 -104 -402 -110 -410 -5 -7 -197 -65 -425 -128
l-415 -114 -415 414 c-228 227 -428 418 -443 423 -74 28 -155 -1 -190 -69 -16
-31 -18 -55 -14 -230 8 -288 47 -450 168 -695 88 -179 176 -302 314 -440 288
-288 646 -452 1060 -485 202 -17 448 12 637 75 l73 25 65 -68 c36 -37 180
-186 320 -331 140 -146 265 -273 278 -285 12 -11 22 -23 22 -27 0 -7 -136
-129 -645 -579 -78 -69 -337 -298 -576 -510 -239 -212 -616 -546 -839 -744
-650 -575 -621 -545 -662 -679 -17 -57 -20 -87 -16 -173 4 -95 8 -110 42 -181
35 -72 55 -95 265 -300 233 -229 283 -267 388 -298 129 -37 276 -26 385 29 54
27 85 56 243 232 215 239 623 695 795 889 69 77 129 145 135 151 5 6 271 303
590 660 319 357 596 666 615 686 l35 38 179 -188 c99 -103 240 -250 315 -327
75 -77 197 -203 271 -280 74 -77 259 -268 410 -425 151 -156 327 -338 391
-405 63 -66 243 -253 400 -415 157 -162 314 -326 349 -364 186 -196 403 -299
635 -300 132 0 206 17 325 76 69 34 103 60 180 138 105 104 155 185 186 300
23 87 23 244 0 330 -26 101 -108 257 -178 341 -35 42 -196 201 -358 354 -542
512 -1033 977 -1205 1140 -93 89 -339 320 -545 515 -535 505 -602 569 -598
579 2 5 52 60 113 123 60 62 305 316 544 563 239 248 496 513 572 590 75 77
170 176 212 220 l75 79 56 -37 c90 -60 150 -80 236 -80 53 0 91 6 130 21 70
28 105 28 184 -2 99 -38 345 -194 501 -320 l30 -24 -51 -54 c-63 -66 -89 -130
-81 -197 15 -128 109 -211 238 -211 90 0 123 27 445 351 322 325 328 333 327
429 -2 135 -127 245 -258 227 -62 -9 -99 -30 -167 -94 -31 -30 -61 -52 -67
-49 -17 11 -139 199 -161 249 -16 35 -19 58 -15 94 12 95 -48 256 -167 447
-182 291 -400 526 -770 828 -480 394 -916 627 -1353 725 -141 31 -454 41 -576
18z m2279 -6665 c110 -55 165 -144 165 -265 0 -80 -17 -129 -67 -190 -74 -90
-212 -128 -327 -90 -72 24 -159 110 -182 179 -36 107 -11 226 65 304 67 69
116 90 219 91 54 1 76 -4 127 -29z"/>
</g>
</svg>
