<?xml version="1.0" standalone="no"?>
<!DOCTYPE svg PUBLIC "-//W3C//DTD SVG 20010904//EN"
 "http://www.w3.org/TR/2001/REC-SVG-20010904/DTD/svg10.dtd">
<svg version="1.0" xmlns="http://www.w3.org/2000/svg"
 width="512.000000pt" height="512.000000pt" viewBox="0 0 512.000000 512.000000"
 preserveAspectRatio="xMidYMid meet">

<g transform="translate(0.000000,512.000000) scale(0.100000,-0.100000)"
fill="#000000" stroke="none">
<path d="M2380 4784 c-415 -51 -695 -144 -998 -332 -651 -404 -1052 -1125
-1052 -1892 0 -1229 1002 -2230 2234 -2230 1011 0 1907 697 2156 1677 43 169
60 294 67 478 35 948 -541 1814 -1436 2160 -114 44 -327 100 -461 120 -100 16
-436 28 -510 19z m281 -193 c158 -102 302 -402 403 -838 l14 -63 -518 0 -518
0 15 68 c30 134 86 319 133 435 84 206 173 337 269 399 63 40 139 40 202 -1z
m-491 -63 c-90 -135 -205 -436 -264 -691 l-33 -142 -267 -3 c-146 -1 -266 0
-266 3 0 12 76 155 122 229 162 261 374 462 617 584 57 28 106 52 109 52 2 0
-6 -15 -18 -32z m937 -54 c202 -112 407 -317 551 -550 46 -74 122 -217 122
-229 0 -3 -119 -5 -265 -5 -204 0 -266 3 -269 13 -2 6 -18 73 -36 147 -60 256
-158 512 -255 668 l-26 42 58 -25 c32 -15 86 -42 120 -61z m-1550 -158 c-153
-169 -275 -350 -362 -539 l-40 -86 -157 -1 c-87 0 -158 3 -158 8 0 4 30 48 67
97 131 174 346 378 523 492 53 34 196 118 208 122 2 1 -35 -41 -81 -93z m2148
-39 c177 -119 382 -313 508 -482 37 -49 67 -93 67 -97 0 -5 -71 -8 -157 -8
l-158 0 -39 85 c-82 181 -213 375 -362 540 l-85 94 83 -46 c45 -25 110 -64
143 -86z m-2619 -762 c-75 -197 -141 -541 -153 -802 l-6 -133 -214 0 -213 0 0
78 c1 162 57 445 125 620 40 105 92 222 107 239 8 10 55 13 185 13 153 0 174
-2 169 -15z m754 2 c0 -8 -7 -58 -15 -113 -25 -170 -45 -411 -52 -621 l-6
-203 -335 0 -335 0 6 148 c7 155 24 280 58 440 22 102 83 313 100 344 9 17 29
18 294 18 230 0 285 -3 285 -13z m1265 3 c23 -38 65 -455 72 -722 l6 -218
-621 0 -622 0 0 136 c0 206 34 605 66 782 l6 32 544 0 c362 0 545 -3 549 -10z
m787 -105 c71 -213 115 -455 125 -687 l6 -148 -335 0 -335 0 -6 198 c-7 206
-28 459 -53 624 -7 54 -14 105 -14 113 0 13 36 15 288 13 l287 -3 37 -110z
m530 35 c113 -228 198 -573 198 -801 l0 -69 -213 0 -214 0 -6 130 c-13 239
-51 466 -117 689 -16 53 -32 104 -36 114 -6 16 5 17 172 15 l179 -3 37 -75z
m-3487 -1107 c26 -272 72 -500 143 -707 27 -78 52 -149 56 -158 8 -17 -3 -18
-157 -18 l-166 0 -54 98 c-126 224 -204 460 -242 722 -8 58 -15 111 -15 118 0
9 49 12 214 12 l214 0 7 -67z m843 -135 c14 -231 34 -424 66 -615 l22 -133
-273 0 -272 0 -22 48 c-88 196 -172 547 -194 820 l-7 82 334 0 334 0 12 -202z
m1398 47 c-10 -239 -40 -512 -79 -725 l-12 -65 -526 -3 -525 -2 -22 132 c-40
246 -72 578 -72 747 l0 71 622 0 621 0 -7 -155z m839 73 c-22 -272 -104 -617
-195 -820 l-21 -48 -273 0 -272 0 22 140 c31 191 51 377 66 613 l12 197 334 0
334 0 -7 -82z m601 45 c-3 -21 -8 -63 -11 -93 -26 -231 -135 -544 -269 -772
l-28 -48 -165 0 c-153 0 -165 1 -158 18 89 214 172 552 190 777 3 44 8 97 11
118 l6 37 215 0 215 0 -6 -37z m-3346 -1177 c81 -140 166 -257 277 -382 l97
-108 -70 39 c-189 105 -345 226 -507 395 -167 173 -167 161 4 158 l142 -3 57
-99z m636 77 c59 -248 173 -542 264 -680 l22 -33 -39 16 c-168 71 -341 192
-466 327 -106 115 -277 353 -277 387 0 6 85 10 245 10 l245 0 6 -27z m1130
-11 c-9 -60 -84 -286 -127 -385 -44 -103 -117 -223 -169 -281 -89 -100 -191
-124 -281 -68 -95 61 -185 192 -267 394 -48 117 -122 357 -115 371 2 4 220 7
485 7 l481 0 -7 -38z m674 28 c0 -34 -171 -272 -277 -387 -125 -135 -298 -256
-466 -326 l-38 -16 26 42 c100 163 179 366 255 655 l11 42 244 0 c160 0 245
-4 245 -10z m459 -22 c-38 -54 -229 -246 -308 -310 -89 -72 -220 -160 -316
-214 l-70 -38 93 103 c106 119 187 228 262 356 29 50 59 100 67 113 13 21 19
22 154 22 l140 0 -22 -32z"/>
</g>
</svg>
